<svg width="234" height="68" viewBox="0 0 234 68" fill="none" xmlns="http://www.w3.org/2000/svg">
<path d="M81.3198 33.124C81.5918 33.124 81.8071 33.2147 81.9658 33.396C82.1471 33.5547 82.2378 33.77 82.2378 34.042V43.052C82.2378 43.6413 81.9771 44.0493 81.4558 44.276C80.5265 44.7067 79.3931 45.0467 78.0558 45.296C76.7411 45.5453 75.4038 45.67 74.0438 45.67C71.7091 45.67 69.6918 45.194 67.9918 44.242C66.3145 43.2673 65.0225 41.862 64.1158 40.026C63.2318 38.1673 62.7898 35.9573 62.7898 33.396C62.7898 30.88 63.2318 28.704 64.1158 26.868C64.9998 25.032 66.2691 23.6267 67.9238 22.652C69.5785 21.6547 71.5391 21.156 73.8058 21.156C75.3925 21.156 76.8771 21.4167 78.2598 21.938C79.6425 22.4367 80.7758 23.162 81.6598 24.114C81.9545 24.4087 82.1018 24.7373 82.1018 25.1C82.1018 25.3493 82.0338 25.5647 81.8978 25.746C81.7618 25.9273 81.5918 26.018 81.3878 26.018C81.2065 26.018 80.9571 25.9047 80.6398 25.678C79.4385 24.6807 78.3278 23.9893 77.3078 23.604C76.2878 23.2187 75.1205 23.026 73.8058 23.026C70.9951 23.026 68.8191 23.9327 67.2778 25.746C65.7591 27.5367 64.9998 30.0867 64.9998 33.396C64.9998 36.7733 65.7705 39.3573 67.3118 41.148C68.8531 42.9387 71.0971 43.834 74.0438 43.834C75.1771 43.834 76.2878 43.7433 77.3758 43.562C78.4865 43.358 79.4725 43.0747 80.3338 42.712V34.892H74.8258C74.5085 34.892 74.2591 34.8127 74.0778 34.654C73.9191 34.4953 73.8398 34.28 73.8398 34.008C73.8398 33.736 73.9191 33.5207 74.0778 33.362C74.2591 33.2033 74.5085 33.124 74.8258 33.124H81.3198Z" fill="white"/>
<path d="M115.31 44.14C115.446 44.344 115.514 44.5367 115.514 44.718C115.514 44.9673 115.412 45.1827 115.208 45.364C115.026 45.5227 114.811 45.602 114.562 45.602C114.176 45.602 113.87 45.4207 113.644 45.058L109.054 37.714C108.396 36.6713 107.716 35.9573 107.014 35.572C106.334 35.1867 105.382 34.994 104.158 34.994H99.4997V44.48C99.4997 44.82 99.3977 45.092 99.1937 45.296C99.0124 45.4773 98.763 45.568 98.4457 45.568C98.1284 45.568 97.8677 45.4773 97.6637 45.296C97.4824 45.092 97.3917 44.82 97.3917 44.48V22.482C97.3917 22.1873 97.4937 21.938 97.6977 21.734C97.9244 21.53 98.1964 21.428 98.5137 21.428H106.98C109.496 21.428 111.434 22.006 112.794 23.162C114.154 24.2953 114.834 25.9613 114.834 28.16C114.834 30.0867 114.256 31.6167 113.1 32.75C111.944 33.8833 110.312 34.5407 108.204 34.722C108.748 34.9033 109.246 35.2093 109.7 35.64C110.153 36.048 110.618 36.626 111.094 37.374L115.31 44.14ZM106.844 33.192C110.788 33.192 112.76 31.5033 112.76 28.126C112.76 26.4713 112.272 25.2473 111.298 24.454C110.323 23.638 108.838 23.23 106.844 23.23H99.4657V33.192H106.844Z" fill="white"/>
<path d="M139.572 45.67C137.396 45.67 135.503 45.1827 133.894 44.208C132.285 43.2107 131.049 41.794 130.188 39.958C129.327 38.0993 128.896 35.9233 128.896 33.43C128.896 30.914 129.327 28.738 130.188 26.902C131.049 25.0433 132.273 23.6267 133.86 22.652C135.469 21.6547 137.373 21.156 139.572 21.156C141.771 21.156 143.675 21.6547 145.284 22.652C146.893 23.6267 148.129 25.032 148.99 26.868C149.851 28.704 150.282 30.88 150.282 33.396C150.282 35.912 149.851 38.0993 148.99 39.958C148.129 41.794 146.893 43.2107 145.284 44.208C143.675 45.1827 141.771 45.67 139.572 45.67ZM139.572 43.8C142.269 43.8 144.366 42.8933 145.862 41.08C147.358 39.2667 148.106 36.7053 148.106 33.396C148.106 30.0867 147.358 27.5367 145.862 25.746C144.389 23.9327 142.292 23.026 139.572 23.026C136.875 23.026 134.778 23.9327 133.282 25.746C131.809 27.5593 131.072 30.1093 131.072 33.396C131.072 36.6827 131.809 39.244 133.282 41.08C134.778 42.8933 136.875 43.8 139.572 43.8Z" fill="white"/>
<path d="M181.453 43.834C181.702 44.0607 181.827 44.31 181.827 44.582C181.827 44.8313 181.725 45.058 181.521 45.262C181.339 45.4433 181.124 45.534 180.875 45.534C180.671 45.534 180.455 45.4433 180.229 45.262L166.901 33.94V44.48C166.901 44.7973 166.799 45.058 166.595 45.262C166.413 45.466 166.164 45.568 165.847 45.568C165.529 45.568 165.269 45.466 165.065 45.262C164.883 45.058 164.793 44.7973 164.793 44.48V22.346C164.793 22.0287 164.883 21.768 165.065 21.564C165.269 21.36 165.529 21.258 165.847 21.258C166.164 21.258 166.413 21.36 166.595 21.564C166.799 21.768 166.901 22.0287 166.901 22.346V32.58L179.549 21.564C179.73 21.3827 179.945 21.292 180.195 21.292C180.444 21.292 180.671 21.394 180.875 21.598C181.079 21.7793 181.181 21.9947 181.181 22.244C181.181 22.516 181.056 22.7653 180.807 22.992L168.975 33.158L181.453 43.834Z" fill="white"/>
<path d="M193.225 46.656C193.134 46.9053 193.009 47.0867 192.851 47.2C192.692 47.336 192.511 47.404 192.307 47.404C192.057 47.404 191.831 47.302 191.627 47.098C191.423 46.9167 191.321 46.6787 191.321 46.384C191.321 46.316 191.343 46.1913 191.389 46.01L199.515 20.748C199.605 20.4987 199.73 20.3173 199.889 20.204C200.047 20.068 200.229 20 200.433 20C200.682 20 200.897 20.102 201.079 20.306C201.283 20.4873 201.385 20.714 201.385 20.986C201.385 21.0767 201.362 21.2127 201.317 21.394L193.225 46.656Z" fill="white"/>
<path d="M233.464 44.276C233.532 44.412 233.566 44.548 233.566 44.684C233.566 44.9333 233.464 45.1487 233.26 45.33C233.056 45.4887 232.818 45.568 232.546 45.568C232.365 45.568 232.183 45.5113 232.002 45.398C231.843 45.2847 231.719 45.126 231.628 44.922L229.044 39.006H215.852L213.234 44.922C213.03 45.3527 212.713 45.568 212.282 45.568C212.01 45.568 211.772 45.4887 211.568 45.33C211.387 45.1487 211.296 44.922 211.296 44.65C211.296 44.4913 211.319 44.3667 211.364 44.276L221.292 21.972C221.496 21.4733 221.87 21.224 222.414 21.224C222.663 21.224 222.89 21.292 223.094 21.428C223.321 21.564 223.479 21.7453 223.57 21.972L233.464 44.276ZM216.634 37.17H228.228L222.448 24.012L216.634 37.17Z" fill="white"/>
<path d="M12.3357 32.6791L0 35.8421C3.91124 32.3978 13.9914 28.8313 17.4295 28.2983C24.1241 27.2604 37.6853 28.3688 42.2261 29.9906C30.8091 29.3419 18.0291 29.9906 12.3357 32.6791Z" fill="white"/>
<path d="M0 34.8627V30.6732C11.7467 20.7731 31.7081 20.8131 40.7309 22.2169L42.0189 26.4027C19.158 23.1828 4.25603 31.1048 0 34.8627Z" fill="white"/>
<path d="M0.158203 26.3531L0.632654 22.3994C11.5122 11.5896 29.6914 12.7073 37.798 14.4613L39.4586 18.2569C19.6107 14.0474 5.05891 21.8058 0.158203 26.3531Z" fill="white"/>
<path d="M8.80193 24.9899L0.158203 27.6184C1.58156 25.7206 9.03965 21.7363 12.3358 20.8179C20.5872 19.5724 35.1469 19.9962 40.0121 20.8179C25.1699 19.8319 12.1103 23.3682 8.80193 24.9899Z" fill="white"/>
<path d="M19.6351 0.0800414C12.1102 1.06606 4.84485 11.8214 1.21216 16.9461C11.7031 6.90064 28.678 9.57058 35.9001 11.1707C33.2405 7.47314 27.16 -0.905975 19.6351 0.0800414Z" fill="white"/>
<path d="M11.2287 12.4359C9.86899 12.6474 3.42742 15.9671 1.42334 17.9712L13.0063 14.7196C19.2817 12.2078 32.0068 12.8688 37.3235 13.4637C26.7991 9.62989 12.9283 12.1715 11.2287 12.4359Z" fill="white"/>
<path fill-rule="evenodd" clip-rule="evenodd" d="M17.7294 51.204C17.0204 51.4447 16.2563 51.5758 15.4599 51.5758C11.745 51.5758 8.73345 48.723 8.73345 45.204C8.73345 44.9162 8.75359 44.6329 8.7926 44.3553C6.18427 42.8387 3.31259 41.5434 0 40.4265C1.18602 47.6782 7.21315 61.5437 21.8335 67.7944C36.4539 61.5437 42.4811 47.8757 43.6671 40.6241C41.4083 40.8915 38.5451 42.0162 35.3496 43.9631C35.4332 44.3645 35.4771 44.7794 35.4771 45.204C35.4771 48.723 32.4655 51.5758 28.7506 51.5758C27.85 51.5758 26.9907 51.4081 26.2056 51.1039C24.7773 52.4576 23.3345 53.9377 21.8949 55.5422C20.4933 53.9821 19.1192 52.5395 17.7294 51.204Z" fill="white"/>
<path d="M43.6671 39.7796C34.2867 41.997 26.0807 49.7465 21.8949 55.5422C10.8972 41.1482 0 40.0563 0 39.9413V38.2091C10.0919 31.093 32.9929 30.6078 43.1819 31.2547C43.9582 33.5836 43.8288 37.785 43.6671 39.7796Z" fill="white"/>
</svg>
