<svg width="58" height="90" viewBox="0 0 58 90" fill="none" xmlns="http://www.w3.org/2000/svg">
<path d="M16.3388 43.2839L0 47.4733C5.18048 42.9112 18.5318 38.1874 23.0856 37.4814C31.9526 36.1067 49.9145 37.5748 55.929 39.7229C40.807 38.8637 23.8798 39.7229 16.3388 43.2839Z" fill="white"/>
<path d="M0 46.176V40.627C15.5586 27.5141 41.9977 27.5671 53.9485 29.4265L55.6544 34.9706C25.375 30.7059 5.63716 41.1987 0 46.176Z" fill="white"/>
<path d="M0.209473 34.905L0.837888 29.6682C15.248 15.3506 39.3265 16.831 50.0638 19.1542L52.2632 24.1815C25.9745 18.6059 6.70051 28.882 0.209473 34.905Z" fill="white"/>
<path d="M11.6582 33.0994L0.209473 36.5807C2.09472 34.0671 11.973 28.7898 16.3388 27.5735C27.2679 25.9238 46.5523 26.4851 52.9964 27.5734C33.3378 26.2675 16.0401 30.9514 11.6582 33.0994Z" fill="white"/>
<path d="M26.0068 0.106016C16.0401 1.412 6.41701 15.6576 1.60547 22.4453C15.5009 9.13997 37.9843 12.6763 47.5501 14.7957C44.0273 9.89825 35.9736 -1.19997 26.0068 0.106016Z" fill="white"/>
<path d="M14.8724 16.4715C13.0715 16.7517 4.53962 21.1486 1.88519 23.803L17.2269 19.4963C25.5388 16.1694 42.3933 17.0449 49.4353 17.8328C35.4957 12.755 17.1236 16.1213 14.8724 16.4715Z" fill="white"/>
<path fill-rule="evenodd" clip-rule="evenodd" d="M23.4827 67.8202C22.5436 68.139 21.5316 68.3126 20.4767 68.3126C15.5563 68.3126 11.5675 64.5341 11.5675 59.8731C11.5675 59.492 11.5942 59.1167 11.6458 58.7489C8.19108 56.7403 4.38753 55.0246 0 53.5453C1.5709 63.1502 9.55389 81.5152 28.9187 89.7943C48.2836 81.5152 56.2666 63.4118 57.8375 53.8069C54.8457 54.1612 51.0533 55.6509 46.8208 58.2296C46.9316 58.7612 46.9896 59.3107 46.9896 59.8731C46.9896 64.5341 43.0008 68.3126 38.0804 68.3126C36.8875 68.3126 35.7494 68.0906 34.7096 67.6877C32.8177 69.4806 30.9068 71.4411 29 73.5661C27.1435 71.4998 25.3235 69.5891 23.4827 67.8202Z" fill="white"/>
<path d="M57.8375 52.6885C45.4132 55.6255 34.5441 65.8897 29 73.5662C14.4335 54.5012 0 53.0549 0 52.9027V50.6083C13.3669 41.183 43.6995 40.5403 57.1949 41.3972C58.2231 44.4818 58.0517 50.0465 57.8375 52.6885Z" fill="white"/>
</svg>
