<svg width="171" height="136" viewBox="0 0 171 136" fill="none" xmlns="http://www.w3.org/2000/svg">
<path d="M18.706 121.52C18.978 121.52 19.1934 121.611 19.352 121.792C19.5334 121.951 19.624 122.166 19.624 122.438V131.448C19.624 132.038 19.3634 132.446 18.842 132.672C17.9127 133.103 16.7794 133.443 15.442 133.692C14.1274 133.942 12.79 134.066 11.43 134.066C9.09536 134.066 7.07803 133.59 5.37803 132.638C3.70069 131.664 2.40869 130.258 1.50203 128.422C0.618025 126.564 0.176025 124.354 0.176025 121.792C0.176025 119.276 0.618025 117.1 1.50203 115.264C2.38603 113.428 3.65536 112.023 5.31003 111.048C6.96469 110.051 8.92536 109.552 11.192 109.552C12.7787 109.552 14.2634 109.813 15.646 110.334C17.0287 110.833 18.162 111.558 19.046 112.51C19.3407 112.805 19.488 113.134 19.488 113.496C19.488 113.746 19.42 113.961 19.284 114.142C19.148 114.324 18.978 114.414 18.774 114.414C18.5927 114.414 18.3434 114.301 18.026 114.074C16.8247 113.077 15.714 112.386 14.694 112C13.674 111.615 12.5067 111.422 11.192 111.422C8.38136 111.422 6.20536 112.329 4.66403 114.142C3.14536 115.933 2.38603 118.483 2.38603 121.792C2.38603 125.17 3.15669 127.754 4.69803 129.544C6.23936 131.335 8.48336 132.23 11.43 132.23C12.5634 132.23 13.674 132.14 14.762 131.958C15.8727 131.754 16.8587 131.471 17.72 131.108V123.288H12.212C11.8947 123.288 11.6454 123.209 11.464 123.05C11.3054 122.892 11.226 122.676 11.226 122.404C11.226 122.132 11.3054 121.917 11.464 121.758C11.6454 121.6 11.8947 121.52 12.212 121.52H18.706Z" fill="#404040"/>
<path d="M52.6959 132.536C52.8319 132.74 52.8999 132.933 52.8999 133.114C52.8999 133.364 52.7979 133.579 52.5939 133.76C52.4126 133.919 52.1973 133.998 51.9479 133.998C51.5626 133.998 51.2566 133.817 51.0299 133.454L46.4399 126.11C45.7826 125.068 45.1026 124.354 44.3999 123.968C43.7199 123.583 42.7679 123.39 41.5439 123.39H36.8859V132.876C36.8859 133.216 36.7839 133.488 36.5799 133.692C36.3986 133.874 36.1493 133.964 35.8319 133.964C35.5146 133.964 35.2539 133.874 35.0499 133.692C34.8686 133.488 34.7779 133.216 34.7779 132.876V110.878C34.7779 110.584 34.8799 110.334 35.0839 110.13C35.3106 109.926 35.5826 109.824 35.8999 109.824H44.3659C46.8819 109.824 48.8199 110.402 50.1799 111.558C51.5399 112.692 52.2199 114.358 52.2199 116.556C52.2199 118.483 51.6419 120.013 50.4859 121.146C49.3299 122.28 47.6979 122.937 45.5899 123.118C46.1339 123.3 46.6326 123.606 47.0859 124.036C47.5393 124.444 48.0039 125.022 48.4799 125.77L52.6959 132.536ZM44.2299 121.588C48.1739 121.588 50.1459 119.9 50.1459 116.522C50.1459 114.868 49.6586 113.644 48.6839 112.85C47.7093 112.034 46.2246 111.626 44.2299 111.626H36.8519V121.588H44.2299Z" fill="#404040"/>
<path d="M76.9581 134.066C74.7821 134.066 72.8895 133.579 71.2801 132.604C69.6708 131.607 68.4355 130.19 67.5741 128.354C66.7128 126.496 66.2821 124.32 66.2821 121.826C66.2821 119.31 66.7128 117.134 67.5741 115.298C68.4355 113.44 69.6594 112.023 71.2461 111.048C72.8555 110.051 74.7594 109.552 76.9581 109.552C79.1568 109.552 81.0608 110.051 82.6701 111.048C84.2795 112.023 85.5148 113.428 86.3761 115.264C87.2375 117.1 87.6681 119.276 87.6681 121.792C87.6681 124.308 87.2375 126.496 86.3761 128.354C85.5148 130.19 84.2795 131.607 82.6701 132.604C81.0608 133.579 79.1568 134.066 76.9581 134.066ZM76.9581 132.196C79.6554 132.196 81.7521 131.29 83.2481 129.476C84.7441 127.663 85.4921 125.102 85.4921 121.792C85.4921 118.483 84.7441 115.933 83.2481 114.142C81.7748 112.329 79.6781 111.422 76.9581 111.422C74.2608 111.422 72.1641 112.329 70.6681 114.142C69.1948 115.956 68.4581 118.506 68.4581 121.792C68.4581 125.079 69.1948 127.64 70.6681 129.476C72.1641 131.29 74.2608 132.196 76.9581 132.196Z" fill="#404040"/>
<path d="M118.839 132.23C119.088 132.457 119.213 132.706 119.213 132.978C119.213 133.228 119.111 133.454 118.907 133.658C118.726 133.84 118.51 133.93 118.261 133.93C118.057 133.93 117.842 133.84 117.615 133.658L104.287 122.336V132.876C104.287 133.194 104.185 133.454 103.981 133.658C103.8 133.862 103.55 133.964 103.233 133.964C102.916 133.964 102.655 133.862 102.451 133.658C102.27 133.454 102.179 133.194 102.179 132.876V110.742C102.179 110.425 102.27 110.164 102.451 109.96C102.655 109.756 102.916 109.654 103.233 109.654C103.55 109.654 103.8 109.756 103.981 109.96C104.185 110.164 104.287 110.425 104.287 110.742V120.976L116.935 109.96C117.116 109.779 117.332 109.688 117.581 109.688C117.83 109.688 118.057 109.79 118.261 109.994C118.465 110.176 118.567 110.391 118.567 110.64C118.567 110.912 118.442 111.162 118.193 111.388L106.361 121.554L118.839 132.23Z" fill="#404040"/>
<path d="M130.611 135.052C130.52 135.302 130.396 135.483 130.237 135.596C130.078 135.732 129.897 135.8 129.693 135.8C129.444 135.8 129.217 135.698 129.013 135.494C128.809 135.313 128.707 135.075 128.707 134.78C128.707 134.712 128.73 134.588 128.775 134.406L136.901 109.144C136.992 108.895 137.116 108.714 137.275 108.6C137.434 108.464 137.615 108.396 137.819 108.396C138.068 108.396 138.284 108.498 138.465 108.702C138.669 108.884 138.771 109.11 138.771 109.382C138.771 109.473 138.748 109.609 138.703 109.79L130.611 135.052Z" fill="#404040"/>
<path d="M170.85 132.672C170.918 132.808 170.952 132.944 170.952 133.08C170.952 133.33 170.85 133.545 170.646 133.726C170.442 133.885 170.204 133.964 169.932 133.964C169.751 133.964 169.57 133.908 169.388 133.794C169.23 133.681 169.105 133.522 169.014 133.318L166.43 127.402H153.238L150.62 133.318C150.416 133.749 150.099 133.964 149.668 133.964C149.396 133.964 149.158 133.885 148.954 133.726C148.773 133.545 148.682 133.318 148.682 133.046C148.682 132.888 148.705 132.763 148.75 132.672L158.678 110.368C158.882 109.87 159.256 109.62 159.8 109.62C160.05 109.62 160.276 109.688 160.48 109.824C160.707 109.96 160.866 110.142 160.956 110.368L170.85 132.672ZM154.02 125.566H165.614L159.834 112.408L154.02 125.566Z" fill="#404040"/>
<path d="M73.3388 43.2839L57 47.4733C62.1805 42.9112 75.5318 38.1874 80.0856 37.4814C88.9526 36.1067 106.915 37.5748 112.929 39.7229C97.807 38.8637 80.8798 39.7229 73.3388 43.2839Z" fill="#404040"/>
<path d="M57 46.176V40.627C72.5586 27.5141 98.9977 27.5671 110.949 29.4265L112.654 34.9706C82.375 30.7059 62.6372 41.1987 57 46.176Z" fill="#404040"/>
<path d="M57.2095 34.905L57.8379 29.6682C72.248 15.3506 96.3265 16.831 107.064 19.1542L109.263 24.1815C82.9745 18.6059 63.7005 28.882 57.2095 34.905Z" fill="#404040"/>
<path d="M68.6582 33.0994L57.2095 36.5808C59.0947 34.0671 68.973 28.7899 73.3388 27.5735C84.2679 25.9239 103.552 26.4852 109.996 27.5735C90.3378 26.2675 73.0401 30.9514 68.6582 33.0994Z" fill="#404040"/>
<path d="M83.0068 0.106016C73.0401 1.412 63.417 15.6576 58.6055 22.4453C72.5009 9.13997 94.9843 12.6763 104.55 14.7957C101.027 9.89825 92.9736 -1.19997 83.0068 0.106016Z" fill="#404040"/>
<path d="M71.8724 16.4715C70.0715 16.7516 61.5396 21.1486 58.8852 23.803L74.2269 19.4962C82.5388 16.1693 99.3933 17.0448 106.435 17.8328C92.4957 12.7549 74.1236 16.1213 71.8724 16.4715Z" fill="#404040"/>
<path fill-rule="evenodd" clip-rule="evenodd" d="M80.4827 67.8202C79.5436 68.139 78.5316 68.3127 77.4767 68.3127C72.5563 68.3127 68.5675 64.5342 68.5675 59.8732C68.5675 59.492 68.5942 59.1168 68.6458 58.749C65.1911 56.7403 61.3875 55.0247 57 53.5453C58.5709 63.1502 66.5539 81.5153 85.9187 89.7944C105.284 81.5153 113.267 63.4119 114.837 53.807C111.846 54.1613 108.053 55.6509 103.821 58.2297C103.932 58.7613 103.99 59.3108 103.99 59.8732C103.99 64.5342 100.001 68.3127 95.0804 68.3127C93.8875 68.3127 92.7494 68.0906 91.7096 67.6877C89.8177 69.4806 87.9068 71.4411 86 73.5662C84.1435 71.4999 82.3235 69.5891 80.4827 67.8202Z" fill="#404040"/>
<path d="M114.838 52.6885C102.413 55.6255 91.5441 65.8897 86 73.5662C71.4335 54.5012 57 53.0549 57 52.9027V50.6083C70.3669 41.183 100.699 40.5403 114.195 41.3972C115.223 44.4818 115.052 50.0465 114.838 52.6885Z" fill="#404040"/>
</svg>
